name rise37.2698peak67.6939fall79.5734.mot
datacolumns 19
datarows 35
range 9.82662700000000 9.88329900000000
endheader
time	ground_force1_vx	ground_force1_vy	ground_force1_vz	ground_force1_px	ground_force1_py	ground_force1_pz	ground_force2_vx	ground_force2_vy	ground_force2_vz	ground_force2_px	ground_force2_py	ground_force2_pz	ground_torque1_x	ground_torque1_y	ground_torque1_z	ground_torque2_x	ground_torque2_y	ground_torque2_z	
9.82662700000000	-41.43927100000000	800.98852499999998	52.24592300000000	0.12780800000000	0.00000000000000	0.10849600000000	-4.49282500000000	20.54686800000000	5.41992800000000	0.00000000000000	0.00000000000000	0.00000000000000	0.00000000000000	19.94797300000000	0.00000000000000	0.00000000000000	1.95239100000000	0.00000000000000	
9.82829600000000	-41.80053900000000	799.20667500000002	52.11520900000000	0.12725600000000	0.00000000000000	0.10847300000000	-5.41256200000000	26.10937100000000	6.69540300000000	0.36908700000000	0.00000000000000	-0.05271100000000	0.00000000000000	19.91498000000000	0.00000000000000	0.00000000000000	4.61176600000000	0.00000000000000	
9.82996400000000	-42.17711800000000	797.32803999999999	51.96656100000000	0.12670600000000	0.00000000000000	0.10844700000000	-6.30071300000000	32.00231400000000	7.98900400000000	0.37306200000000	0.00000000000000	-0.05318200000000	0.00000000000000	19.88242700000000	0.00000000000000	0.00000000000000	5.55585500000000	0.00000000000000	
9.83163200000000	-42.56957300000000	795.35150999999996	51.79982100000000	0.12615800000000	0.00000000000000	0.10841700000000	-7.12218000000000	38.10319100000000	9.26208700000000	0.37663100000000	0.00000000000000	-0.05363400000000	0.00000000000000	19.85040000000000	0.00000000000000	0.00000000000000	6.49911700000000	0.00000000000000	
9.83329700000000	-42.97842000000000	793.27596000000005	51.61485000000000	0.12561100000000	0.00000000000000	0.10838400000000	-7.84550400000000	44.29334900000000	10.47867100000000	0.37984500000000	0.00000000000000	-0.05407200000000	0.00000000000000	19.81898200000000	0.00000000000000	0.00000000000000	7.41561400000000	0.00000000000000	
9.83496800000000	-43.40412200000000	791.10024299999998	51.41152600000000	0.12506500000000	0.00000000000000	0.10834700000000	-8.44492000000000	50.46686000000000	11.60787500000000	0.38274900000000	0.00000000000000	-0.05449700000000	0.00000000000000	19.78824700000000	0.00000000000000	0.00000000000000	8.28256300000000	0.00000000000000	
9.83662600000000	-43.84708200000000	788.82319399999994	51.18974900000000	0.12451800000000	0.00000000000000	0.10830700000000	-8.90171900000000	56.53730400000000	12.62565300000000	0.38537700000000	0.00000000000000	-0.05491200000000	0.00000000000000	19.75826000000000	0.00000000000000	0.00000000000000	9.08167500000000	0.00000000000000	
9.83829900000000	-44.30764000000000	786.44362200000000	50.94943300000000	0.12397100000000	0.00000000000000	0.10826400000000	-9.20485100000000	62.44198500000000	13.51573900000000	0.38776100000000	0.00000000000000	-0.05531800000000	0.00000000000000	19.72907800000000	0.00000000000000	0.00000000000000	9.79995100000000	0.00000000000000	
9.83996300000000	-44.78607000000000	783.96031300000004	50.69051500000000	0.12342200000000	0.00000000000000	0.10821700000000	-9.35082000000000	68.14353900000000	14.26980800000000	0.38992700000000	0.00000000000000	-0.05571600000000	0.00000000000000	19.70075000000000	0.00000000000000	0.00000000000000	10.42992000000000	0.00000000000000	
9.84162800000000	-45.28257300000000	781.37202600000001	50.41294800000000	0.12287000000000	0.00000000000000	0.10816700000000	-9.34296400000000	73.62920000000000	14.88695500000000	0.39189600000000	0.00000000000000	-0.05610800000000	0.00000000000000	19.67331200000000	0.00000000000000	0.00000000000000	10.96937700000000	0.00000000000000	
9.84329700000000	-45.79727100000000	778.67749300000003	50.11670300000000	0.12231600000000	0.00000000000000	0.10811400000000	-9.19030800000000	78.90815600000001	15.37266600000000	0.39369000000000	0.00000000000000	-0.05649500000000	0.00000000000000	19.64679100000000	0.00000000000000	0.00000000000000	11.42074400000000	0.00000000000000	
9.84496700000000	-46.33021100000000	775.87541899999997	49.80177300000000	0.12175800000000	0.00000000000000	0.10805700000000	-8.90613700000000	84.00755500000000	15.73742700000000	0.39532400000000	0.00000000000000	-0.05687700000000	0.00000000000000	19.62120400000000	0.00000000000000	0.00000000000000	11.79014300000000	0.00000000000000	
9.84663100000000	-46.88135100000000	772.96448299999997	49.46816500000000	0.12119700000000	0.00000000000000	0.10799700000000	-8.50646100000000	88.96772799999999	15.99517500000000	0.39681400000000	0.00000000000000	-0.05725400000000	0.00000000000000	19.59655400000000	0.00000000000000	0.00000000000000	12.08633800000000	0.00000000000000	
9.84829400000000	-47.45056300000000	769.94333600000004	49.11590900000000	0.12063000000000	0.00000000000000	0.10793400000000	-8.00852800000000	93.83714999999999	16.16172900000000	0.39817200000000	0.00000000000000	-0.05762800000000	0.00000000000000	19.57283400000000	0.00000000000000	0.00000000000000	12.31964200000000	0.00000000000000	
9.84996500000000	-48.03762700000000	766.81060500000001	48.74505200000000	0.12005900000000	0.00000000000000	0.10786700000000	-7.42948000000000	98.66760600000001	16.25334100000000	0.39941100000000	0.00000000000000	-0.05799900000000	0.00000000000000	19.55002300000000	0.00000000000000	0.00000000000000	12.50088100000000	0.00000000000000	
9.85163200000000	-48.64223100000000	763.56489199999999	48.35565900000000	0.11948200000000	0.00000000000000	0.10779800000000	-6.78524800000000	103.50990400000001	16.28545700000000	0.40054100000000	0.00000000000000	-0.05836700000000	0.00000000000000	19.52808600000000	0.00000000000000	0.00000000000000	12.64050900000000	0.00000000000000	
9.85330100000000	-49.26396200000000	760.20477800000003	47.94781700000000	0.11889800000000	0.00000000000000	0.10772500000000	-6.08972600000000	108.41038200000000	16.27175600000000	0.40157000000000	0.00000000000000	-0.05873200000000	0.00000000000000	19.50697700000000	0.00000000000000	0.00000000000000	12.74789200000000	0.00000000000000	
9.85496200000000	-49.90230900000000	756.72882600000003	47.52163000000000	0.11830900000000	0.00000000000000	0.10764900000000	-5.35423700000000	113.40833900000000	16.22348400000000	0.40250800000000	0.00000000000000	-0.05909400000000	0.00000000000000	19.48663400000000	0.00000000000000	0.00000000000000	12.83081400000000	0.00000000000000	
9.85663500000000	-50.55665900000000	753.13558300000000	47.07722400000000	0.11771200000000	0.00000000000000	0.10756900000000	-4.58729100000000	118.53442000000000	16.14909200000000	0.40336200000000	0.00000000000000	-0.05945400000000	0.00000000000000	19.46698100000000	0.00000000000000	0.00000000000000	12.89518300000000	0.00000000000000	
9.85829900000000	-51.22629500000000	749.42358200000001	46.61474200000000	0.11710900000000	0.00000000000000	0.10748700000000	-3.79458300000000	123.80991200000000	16.05414100000000	0.40413700000000	0.00000000000000	-0.05981200000000	0.00000000000000	19.44792800000000	0.00000000000000	0.00000000000000	12.94493700000000	0.00000000000000	
9.85996600000000	-51.91039300000000	745.59135100000003	46.13435100000000	0.11649700000000	0.00000000000000	0.10740200000000	-2.97921000000000	129.24683300000001	15.94144700000000	0.40484100000000	0.00000000000000	-0.06016700000000	0.00000000000000	19.42936900000000	0.00000000000000	0.00000000000000	12.98211400000000	0.00000000000000	
9.86162700000000	-52.60802600000000	741.63741200000004	45.63623600000000	0.11587800000000	0.00000000000000	0.10731400000000	-2.14203200000000	134.84866600000001	15.81139100000000	0.40547900000000	0.00000000000000	-0.06051900000000	0.00000000000000	19.41118500000000	0.00000000000000	0.00000000000000	13.00705300000000	0.00000000000000	
9.86329600000000	-53.31815700000000	737.56029200000000	45.12060200000000	0.11525100000000	0.00000000000000	0.10722300000000	-1.28213200000000	140.61156500000001	15.66236500000000	0.40605400000000	0.00000000000000	-0.06087000000000	0.00000000000000	19.39324100000000	0.00000000000000	0.00000000000000	13.01869200000000	0.00000000000000	
9.86496400000000	-54.03964200000000	733.35852299999999	44.58768000000000	0.11461600000000	0.00000000000000	0.10712900000000	-0.39732500000000	146.52585400000001	15.49127900000000	0.40657300000000	0.00000000000000	-0.06121700000000	0.00000000000000	19.37538600000000	0.00000000000000	0.00000000000000	13.01490700000000	0.00000000000000	
9.86662800000000	-54.77123400000000	729.03064800000004	44.03771600000000	0.11397300000000	0.00000000000000	0.10703200000000	0.51533400000000	152.57764800000001	15.29408200000000	0.40703800000000	0.00000000000000	-0.06156300000000	0.00000000000000	19.35745500000000	0.00000000000000	0.00000000000000	12.99288300000000	0.00000000000000	
9.86829400000000	-55.51157600000000	724.57523400000002	43.47098300000000	0.11332100000000	0.00000000000000	0.10693200000000	1.45908900000000	158.75046900000001	15.06626200000000	0.40745400000000	0.00000000000000	-0.06190600000000	0.00000000000000	19.33926700000000	0.00000000000000	0.00000000000000	12.94945600000000	0.00000000000000	
9.86996200000000	-56.25921000000000	719.99087099999997	42.88777500000000	0.11266100000000	0.00000000000000	0.10683000000000	2.43707100000000	165.02672300000000	14.80329400000000	0.40782300000000	0.00000000000000	-0.06224600000000	0.00000000000000	19.32062900000000	0.00000000000000	0.00000000000000	12.88143100000000	0.00000000000000	
9.87163400000000	-57.01257400000000	715.27618199999995	42.28840600000000	0.11199200000000	0.00000000000000	0.10672500000000	3.45198600000000	171.38896199999999	14.50099700000000	0.40814800000000	0.00000000000000	-0.06258300000000	0.00000000000000	19.30133000000000	0.00000000000000	0.00000000000000	12.78583800000000	0.00000000000000	
9.87330100000000	-57.77001000000000	710.42983200000003	41.67321700000000	0.11131500000000	0.00000000000000	0.10661700000000	4.50588200000000	177.82088700000000	14.15581600000000	0.40843200000000	0.00000000000000	-0.06291800000000	0.00000000000000	19.28114800000000	0.00000000000000	0.00000000000000	12.66013100000000	0.00000000000000	
9.87497300000000	-58.52975900000000	705.45053499999995	41.04256800000000	0.11062900000000	0.00000000000000	0.10650700000000	5.60001100000000	184.30805599999999	13.76499800000000	0.40867800000000	0.00000000000000	-0.06325000000000	0.00000000000000	19.25984600000000	0.00000000000000	0.00000000000000	12.50232300000000	0.00000000000000	
9.87663600000000	-59.28997200000000	700.33706400000005	40.39684400000000	0.10993500000000	0.00000000000000	0.10639400000000	6.73477000000000	190.83831799999999	13.32669100000000	0.40888600000000	0.00000000000000	-0.06357800000000	0.00000000000000	19.23717500000000	0.00000000000000	0.00000000000000	12.31105200000000	0.00000000000000	
9.87830000000000	-60.04871300000000	695.08825700000000	39.73645600000000	0.10923300000000	0.00000000000000	0.10627900000000	7.90971600000000	197.40198500000000	12.83995800000000	0.40906000000000	0.00000000000000	-0.06390400000000	0.00000000000000	19.21287200000000	0.00000000000000	0.00000000000000	12.08560400000000	0.00000000000000	
9.87996300000000	-60.80395800000000	689.70303200000001	39.06183500000000	0.10852200000000	0.00000000000000	0.10616100000000	9.12364000000000	203.99178800000001	12.30473000000000	0.40920000000000	0.00000000000000	-0.06422600000000	0.00000000000000	19.18666400000000	0.00000000000000	0.00000000000000	11.82587900000000	0.00000000000000	
9.88162800000000	-61.55360800000000	684.18039399999998	38.37343800000000	0.10780300000000	0.00000000000000	0.10604200000000	10.37467200000000	210.60265999999999	11.72171200000000	0.40930900000000	0.00000000000000	-0.06454500000000	0.00000000000000	19.15826800000000	0.00000000000000	0.00000000000000	11.53232900000000	0.00000000000000	
9.88329900000000	-62.29549000000000	678.51945000000001	37.67174600000000	0.10707700000000	0.00000000000000	0.10591900000000	11.66041700000000	217.23140699999999	11.09225900000000	0.40938700000000	0.00000000000000	-0.06486000000000	0.00000000000000	19.12738800000000	0.00000000000000	0.00000000000000	11.20587500000000	0.00000000000000	
